<?xml version="1.0" standalone="no"?>
<!DOCTYPE svg PUBLIC "-//W3C//DTD SVG 20010904//EN"
 "http://www.w3.org/TR/2001/REC-SVG-20010904/DTD/svg10.dtd">
<svg version="1.0" xmlns="http://www.w3.org/2000/svg"
 width="512.000000pt" height="512.000000pt" viewBox="0 0 512.000000 512.000000"
 preserveAspectRatio="xMidYMid meet">
<metadata>
Created by potrace 1.14, written by Peter Selinger 2001-2017
</metadata>
<g transform="translate(0.000000,512.000000) scale(0.100000,-0.100000)"
fill="#000000" stroke="none">
<path d="M1045 4560 c-67 -14 -150 -49 -211 -89 -135 -89 -215 -202 -255 -360
-19 -74 -19 -123 -17 -1581 l3 -1505 22 -65 c62 -182 193 -316 381 -389 l67
-26 1520 -2 c1444 -3 1524 -2 1590 16 215 56 374 214 434 431 21 73 21 89 21
1560 -1 1274 -3 1495 -16 1554 -8 38 -18 74 -23 80 -5 6 -12 22 -16 36 -12 38
-77 130 -129 180 -58 57 -153 115 -236 143 l-65 22 -1515 1 c-833 1 -1533 -2
-1555 -6z"/>
</g>
</svg>
